<svg width="16" height="16" viewBox="0 0 16 16" fill="none" xmlns="http://www.w3.org/2000/svg">
<path d="M1 10.5L15 10.5" stroke="#343434"/>
<path d="M11 6.5L15 6.5" stroke="#343434"/>
<path d="M11 2.5L15 2.5" stroke="#343434"/>
<path d="M1 14.5L15 14.5" stroke="#343434"/>
<path d="M3.26807 2.40088C2.75146 2.49821 2.38835 2.87256 2.17871 3.52393C2.07389 3.84587 2.02148 4.16406 2.02148 4.47852C2.02148 4.51595 2.02148 4.54964 2.02148 4.57959C2.02897 4.60205 2.03646 4.6582 2.04395 4.74805H4.26807V7.19629H0.875977V4.93896C0.875977 3.83089 1.09684 2.97738 1.53857 2.37842C1.98031 1.77946 2.5568 1.43506 3.26807 1.34521V2.40088ZM8.05273 2.40088C7.64095 2.46826 7.3265 2.70036 7.10938 3.09717C6.89974 3.49398 6.79492 3.95068 6.79492 4.46729C6.79492 4.51221 6.79492 4.55713 6.79492 4.60205C6.80241 4.64697 6.81364 4.69564 6.82861 4.74805H9.05273V7.19629H5.64941V4.93896C5.64941 4.04801 5.83659 3.25439 6.21094 2.55811C6.58529 1.85433 7.19922 1.45003 8.05273 1.34521V2.40088Z" fill="#343434"/>
</svg>
