<svg width="17" height="16" viewBox="0 0 17 16" fill="none" xmlns="http://www.w3.org/2000/svg">
<g clip-path="url(#clip0_1542_44631)">
<path d="M12.52 1C13.6812 2.06098 14.3335 3.49978 14.3335 5C14.3335 6.50022 13.6812 7.93902 12.52 9M10.3335 2.99717C10.9141 3.52766 11.2403 4.24706 11.2403 4.99717C11.2403 5.74728 10.9141 6.46668 10.3335 6.99717" stroke="#343434"/>
<path d="M9.81501 13.7502C9.81501 11.723 7.80643 10.0835 5.33353 10.0835C2.86063 10.0835 0.852051 11.723 0.852051 13.7502" stroke="#343434" stroke-linejoin="round"/>
<path d="M5.3336 7.63888C5.98191 7.63888 6.60367 7.38135 7.06209 6.92292C7.52051 6.4645 7.77805 5.84275 7.77805 5.19444C7.77805 4.54614 7.52051 3.92438 7.06209 3.46596C6.60367 3.00754 5.98191 2.75 5.3336 2.75C4.6853 2.75 4.06354 3.00754 3.60512 3.46596C3.1467 3.92438 2.88916 4.54614 2.88916 5.19444C2.88916 5.84275 3.1467 6.4645 3.60512 6.92292C4.06354 7.38135 4.6853 7.63888 5.3336 7.63888Z" stroke="#343434" stroke-linejoin="round"/>
</g>
<defs>
<clipPath id="clip0_1542_44631">
<rect width="16" height="16" fill="white" transform="translate(0.333496)"/>
</clipPath>
</defs>
</svg>
